# xmcd
#
# Track frame offsets:
#	150
#	12364
#	26101
#	35720
#	48171
#	60490
#	72006
#	86103
#	97916
#	111078
#	121883
#	135867
#	145420
#	159824
#	170012
#	180054
#	191737
#	201255
#	211818
#	224830
#	234783
#	246735
#	257679
#	267471
#	277259
#	286278
#	297558
#
# Disc length: 4093 seconds
# Revision: 0
# Processed by: cddbd v1.5.2PL0 Copyright (c) Steve Scherf et al.
# Submitted via: dBpowerAMP V12.0
#
DISCID=9a0ffb1b
DTITLE=Maddox Brothers and Rose - America's Most Colorful Hillbilly Band  - Vol. 01
DYEAR=1946
DGENRE=Country
TTITLE0=George's Playhouse Boogie
TTITLE1=Midnight Train
TTITLE2=Shimmy Shakin' Daddy
TTITLE3=Careless Driver
TTITLE4=Move It On Over
TTITLE5=Whoa Sailor
TTITLE6=Milk Cow Blues
TTITLE7=Mean and Wicked Boogie
TTITLE8=Brown Eyes
TTITLE9=Honky TOnkin'
TTITLE10=Time Nor Tide
TTITLE11=New Mule Skinner Blues
TTITLE12=Philadelphia Lawyer
TTITLE13=Sally Let Your Bangs Hang Down
TTITLE14=When I Lay My Burden Down
TTITLE15=Hangover Blues
TTITLE16=Water Baby Boogie
TTITLE17=Dark as the Dungeon
TTITLE18=Mule Train
TTITLE19=Oklahoma Sweetheart Sally Ann
TTITLE20=Faded Love
TTITLE21=New Step It Up and Go
TTITLE22=(Pay Me) Alimony
TTITLE23=I Wish I Was a Single Girl Again
TTITLE24=Your Love Light Never Shone
TTITLE25=Meanest Man in Town
TTITLE26=I Want to Live and Love
EXTD=
EXTT0=
EXTT1=
EXTT2=
EXTT3=
EXTT4=
EXTT5=
EXTT6=
EXTT7=
EXTT8=
EXTT9=
EXTT10=
EXTT11=
EXTT12=
EXTT13=
EXTT14=
EXTT15=
EXTT16=
EXTT17=
EXTT18=
EXTT19=
EXTT20=
EXTT21=
EXTT22=
EXTT23=
EXTT24=
EXTT25=
EXTT26=
PLAYORDER=
